# xmcd CD database file
#
# Track frame offsets:
#	150
#	15772
#	33512
#	51280
#	70500
#	89102
#	105223
#	121281
#	141243
#	159166
#	177604
#	197471
#
# Disc length: 2969 seconds
#
# Revision: 0
# Processed by: cddbd v1.5.1PL0 Copyright (c) Steve Scherf et al.
# Submitted via: CDex 1.51
#
DISCID=940b970c
DTITLE=Slau - The Weight of Words
DYEAR=2005
DGENRE=Jazz
TTITLE0=The Weight of Words
TTITLE1=What Did You Do
TTITLE2=Cold One
TTITLE3=Act Upon My Love
TTITLE4=I'm The One
TTITLE5=Emptiness
TTITLE6=I Can't
TTITLE7=Once Upon A Time
TTITLE8=Two Can Play
TTITLE9=What Should I Say
TTITLE10=The Only Love
TTITLE11=How Do I Make You Mine
EXTD=YEAR: 2005
EXTT0=
EXTT1=
EXTT2=
EXTT3=
EXTT4=
EXTT5=
EXTT6=
EXTT7=
EXTT8=
EXTT9=
EXTT10=
EXTT11=
PLAYORDER=
